<svg xmlns="http://www.w3.org/2000/svg" width="64" height="64" viewBox="0 0 24 24" fill="none" role="img" aria-label="Lark">
  <path d="M12.9238 12.8029C12.9427 12.784 12.9616 12.7682 12.9806 12.7493C13.0184 12.7146 13.0563 12.6767 13.091 12.6389L13.1667 12.5631L13.397 12.336L14.7315 11.0173L15.0659 10.686C15.129 10.6229 15.1952 10.563 15.2615 10.5031C15.3845 10.3926 15.5076 10.2854 15.6369 10.1813C15.7536 10.0866 15.8767 9.99514 15.9997 9.9068C16.1732 9.78376 16.3499 9.67019 16.5329 9.55977C16.7127 9.45251 16.8957 9.35471 17.085 9.26322C17.2616 9.17804 17.4415 9.09917 17.6276 9.02661C17.7317 8.9856 17.8326 8.94774 17.9399 8.91304C17.9935 8.89411 18.044 8.87834 18.0977 8.86256C17.6276 7.00439 16.7632 5.3008 15.5991 3.84959C15.3719 3.56566 15.0249 3.40161 14.6589 3.40161H5.0084C4.83489 3.40161 4.76233 3.6256 4.90114 3.72656C8.18528 6.13997 10.9236 9.24114 12.9017 12.825C12.908 12.8187 12.9175 12.8124 12.9238 12.8029Z" fill="#00D6B9"/>
  <path d="M9.09696 21.2986C14.0815 21.2986 18.4225 18.5476 20.6877 14.4843C20.7666 14.3423 20.8454 14.1972 20.918 14.052C20.4889 14.7461 19.9021 15.4307 19.1797 16.0143C18.4416 16.6172 17.5234 16.8125 16.6874 16.863C15.5643 16.9314 14.6179 16.6295 13.378 16.2572C11.984 15.838 10.5923 15.1878 9.44084 14.6483C6.45324 13.1592 3.80321 11.1717 1.54438 8.76145C1.43081 8.64157 1.23206 8.72044 1.23206 8.88449L1.23836 18.0933C1.23836 18.494 1.43712 18.8726 1.77153 19.0934C3.86631 20.4878 6.38699 21.2986 9.09696 21.2986Z" fill="#3370FF"/>
  <path d="M23.7322 9.29488C22.7226 8.79642 21.5838 8.5188 20.3818 8.5188C19.6688 8.5188 18.9747 8.6166 18.3217 8.80273C17.2932 9.09612 16.3499 9.67019 15.6369 10.1813C15.5076 10.2854 15.3846 10.3926 15.2616 10.5031L12.9207 12.8093C12.8923 12.8377 12.8639 12.863 12.8355 12.8882C12.804 12.9166 12.7724 12.9481 12.7409 12.9765C11.9143 13.7368 10.9931 14.3899 9.99304 14.923C11.384 15.5698 12.9983 16.2059 14.782 16.6803C16.5312 17.1457 18.0653 16.7002 19.4385 15.8316C20.1131 15.4049 20.6247 14.7951 20.9118 14.0586L21.0411 13.7999L22.2084 11.4748C22.5807 10.6578 23.1012 9.91953 23.7322 9.29488Z" fill="#133C9A"/>
</svg>
